<?xml version="1.0" encoding="UTF-8"?>
<!DOCTYPE svg PUBLIC "-//W3C//DTD SVG 1.1//EN" "http://www.w3.org/Graphics/SVG/1.1/DTD/svg11.dtd">
<!-- Creator: CorelDRAW X6 -->
<svg xmlns="http://www.w3.org/2000/svg" xml:space="preserve" width="1.76389in" height="0.72222in" version="1.1" style="shape-rendering:geometricPrecision; text-rendering:geometricPrecision; image-rendering:optimizeQuality; fill-rule:evenodd; clip-rule:evenodd"
viewBox="0 0 1764 722"
 xmlns:xlink="http://www.w3.org/1999/xlink">
 <defs>
  <style type="text/css">
   <![CDATA[
    .str2 {stroke:#FEFEFE;stroke-width:10.6063}
    .str1 {stroke:#FEFEFE;stroke-width:15.9409}
    .str0 {stroke:#ED3237;stroke-width:78.7402}
    .fil1 {fill:none}
    .fil0 {fill:#4B4B4D}
    .fil3 {fill:#ED3237}
    .fil2 {fill:#FEFEFE}
   ]]>
  </style>
 </defs>
 <g id="Layer_x0020_1">
  <metadata id="CorelCorpID_0Corel-Layer"/>
  <polygon class="fil0" points="2,230 1746,230 1746,211 2,211 "/>
  <polygon class="fil0" points="2,220 416,220 416,14 2,14 "/>
  <path class="fil1 str0" d="M789 177c139,0 251,113 251,251 0,139 -113,251 -251,251 -139,0 -251,-113 -251,-251 0,-139 113,-251 251,-251z"/>
  <path class="fil2" d="M789 177c139,0 251,113 251,251 0,139 -113,251 -251,251 -139,0 -251,-113 -251,-251 0,-139 113,-251 251,-251z"/>
  <path class="fil2" d="M155 191l-82 0 0 -19 28 0 0 -75 -28 0 0 -17c11,0 19,-2 23,-5 5,-3 7,-8 8,-14l24 0 0 111 27 0 0 19zm107 0l-97 0 0 -20c25,-19 41,-33 50,-43 8,-10 13,-19 13,-27 0,-6 -2,-11 -6,-15 -4,-3 -10,-5 -17,-5 -11,0 -22,4 -34,12l-2 0 0 -25c14,-5 28,-8 41,-8 15,0 27,3 35,10 8,7 12,16 12,28 0,9 -3,19 -10,29 -7,10 -22,25 -47,44l63 0 0 21zm94 0l-82 0 0 -19 28 0 0 -75 -28 0 0 -17c11,0 19,-2 23,-5 5,-3 7,-8 8,-14l24 0 0 111 27 0 0 19z"/>
  <path class="fil3" d="M58 529l-3 14 -51 0 0 -276 54 0 0 100c16,-13 28,-22 38,-26 10,-4 20,-6 31,-6 24,0 42,9 55,28 13,18 20,44 20,77 0,33 -8,59 -25,79 -17,20 -37,30 -62,30 -18,0 -37,-7 -57,-20zm0 -139l0 113c12,4 23,7 33,7 37,0 56,-23 56,-69 0,-43 -16,-65 -47,-65 -13,0 -27,5 -42,14zm206 153l-54 0 0 -203 54 0 0 203zm206 0l-54 0 0 -27c-18,14 -31,23 -40,27 -9,4 -18,5 -29,5 -23,0 -42,-9 -56,-28 -14,-19 -21,-45 -21,-77 0,-32 8,-59 25,-79 17,-20 38,-30 62,-30 9,0 17,1 24,3 7,2 18,7 33,14l0 -85 54 0 0 276zm-54 -52l0 -110c-12,-5 -23,-8 -33,-8 -37,0 -56,23 -56,69 0,23 4,40 12,50 8,10 20,15 36,15 12,0 26,-5 41,-16z"/>
  <path class="fil3" d="M1443 301l-71 234 -54 0 -54 -167 -54 167 -55 0 -71 -234 65 0 40 154 49 -154 54 0 48 154 39 -154 63 0zm63 234l-62 0 0 -234 62 0 0 234zm247 0l-63 0 0 -117c0,-33 -4,-53 -11,-61 -7,-8 -19,-12 -35,-12 -13,0 -30,6 -49,18l0 171 -62 0 0 -234 62 0 0 33c19,-16 35,-26 47,-32 12,-5 24,-8 36,-8 49,0 74,29 74,87l0 154z"/>
  <path class="fil0" d="M791 249c97,0 175,78 175,175 0,97 -78,175 -175,175 -29,0 -56,-7 -80,-19l-64 14c-23,8 -29,-5 -22,-22l15 -60c-15,-26 -23,-56 -23,-87 0,-97 78,-175 175,-175z"/>
  <path class="fil2" d="M939 455l0 -90c-3,0 -2,1 -4,1l-4 1c-1,0 -1,0 -2,0 -1,0 -1,0 -2,0 -1,0 -3,1 -4,1 -1,0 -4,1 -6,1 0,0 -1,0 -1,0 -1,0 0,0 -1,0l-3 1c-2,1 -5,1 -7,2 -1,0 -8,1 -8,2 -2,1 -6,2 -8,1 -1,0 -3,0 -4,-1l-4 -3c0,0 -1,-1 -1,-1 -1,-1 -4,-3 -5,-4 -1,-1 -2,-1 -3,-2 -1,-1 -3,-2 -4,-3 0,0 -1,-1 -1,-1l-4 -3c0,0 -1,-1 -1,-1l-13 -11c-1,-1 -5,-3 -6,-4 -1,0 -2,-1 -4,-1 -1,0 -1,0 -2,0 -3,0 -6,0 -9,1 -1,0 -3,1 -4,2l0 0c0,0 0,0 -1,0l-2 1c0,0 0,0 -1,0l-5 3c-1,1 -2,1 -3,2 -1,1 -2,1 -3,2 -1,0 -1,1 -1,1l-8 4c-1,1 -3,2 -4,2 -2,1 -3,2 -5,2l-9 5c-1,0 -1,1 -2,1l-26 15c0,0 0,0 -1,0l-2 1c0,0 -1,0 -1,0 -1,1 -3,2 -4,3l-2 2c-2,2 -2,3 -3,4l-1 2c-1,3 -1,4 0,7 1,3 2,5 4,8 1,1 3,3 4,3l2 1c1,1 3,1 4,1 1,1 6,1 8,0 2,-1 4,-1 6,-2l3 -2c1,-1 2,-1 3,-2 1,0 4,-2 5,-3l13 -7c2,-1 5,-3 7,-4l1 -1c0,0 0,0 1,0 0,0 1,-1 2,-1l1 0c0,0 0,0 1,0 1,0 2,-1 3,-2 0,0 0,0 1,0 1,0 0,0 1,0 0,0 1,0 1,0 2,-1 2,0 3,-1 1,0 6,0 7,0 1,0 1,0 2,1 2,0 5,2 6,3l6 6c1,1 2,1 3,2l15 15c2,2 6,7 9,8 1,0 1,1 1,1 2,2 3,3 5,5l4 4c1,1 3,2 4,4 2,2 5,5 7,7 1,1 1,2 2,2l8 7c0,0 0,0 0,0l3 2c0,0 0,0 1,1 1,1 3,1 4,2 2,1 4,1 6,1 3,0 6,0 9,0 1,0 1,0 2,0 1,0 1,0 2,0 4,0 7,-1 10,-2 1,0 1,0 2,0 1,0 1,0 2,0 2,0 4,-1 6,-1zm-293 -100l0 103c1,0 1,0 2,1l5 2c0,0 1,0 1,0l3 1c1,0 2,1 4,1 0,-1 1,-1 1,-2l1 -2c1,-2 2,-4 4,-6 2,-2 2,-3 5,-5 1,0 1,-1 2,-1l5 -3c0,0 0,0 1,0 0,0 1,0 1,0 1,0 0,0 1,0 0,0 1,0 1,0 2,0 2,-1 4,-1l5 -1c1,0 2,0 5,1 1,0 1,0 2,0 1,0 1,0 2,0l2 1c2,1 3,1 5,3 2,1 4,3 6,5 2,2 4,5 5,7l1 1c1,2 0,3 1,3 0,0 3,1 4,2 1,1 2,1 3,2l0 0c2,1 2,1 4,3 1,0 1,1 1,1l2 3c1,1 2,4 3,5 1,2 1,3 2,4 3,1 5,2 7,4 1,1 2,1 3,2l3 3c1,1 2,3 3,5l2 4c1,2 0,3 2,4 1,0 2,0 3,1 1,1 2,1 3,2 1,1 2,1 3,2 2,2 4,4 6,7l2 4c0,0 0,1 0,1 0,1 1,2 1,3 0,1 0,1 1,2 0,1 0,1 0,2 1,2 0,5 0,8 0,2 1,2 2,3 0,0 1,1 1,1 3,3 5,6 9,7 1,0 1,0 2,1 4,0 2,0 5,-1 3,-1 6,-3 8,-6 0,-1 1,-1 1,-2 0,-1 0,-1 0,-1 1,-3 1,-7 0,-9 -1,-3 -4,-6 -7,-8 -1,-1 -2,-3 -4,-4 -1,-1 -2,-1 -2,-3l-3 -3c0,0 -1,-1 -1,-1 -1,-2 -1,-2 -2,-3 -1,-1 -1,-1 -1,-2 1,0 4,3 5,4l8 7c2,2 4,3 5,5l8 8c1,1 2,1 3,2 2,1 6,1 8,1 1,0 1,0 2,-1 2,-1 5,-3 6,-5 1,-1 1,-2 1,-3 0,-2 1,-1 1,-4 0,-3 0,-2 -1,-4 0,-1 0,-1 -1,-2 0,0 -1,-1 -1,-2 0,-1 -1,-2 -2,-2l-7 -7c-1,-1 -2,-1 -2,-2l-9 -9c-1,-1 -2,-2 -2,-2 -1,-1 -2,-1 -2,-3 1,0 2,1 3,1 3,2 5,4 7,6 1,1 2,2 3,3 1,1 2,1 3,2 0,0 1,1 1,1 1,1 1,2 2,2 1,1 2,2 4,3l8 7 2 1c0,0 0,0 0,0l2 1c3,1 7,1 10,-1 2,-1 3,-2 5,-4 1,-2 3,-7 2,-9 -1,-2 -1,-3 -2,-5 0,0 0,0 0,-1 -1,-2 -5,-6 -7,-7l-2 -2c0,0 -1,-1 -1,-1l-2 -3c0,0 0,0 0,0l-4 -5c0,-1 -1,-1 -1,-1l-3 -4c0,-1 -1,-1 -1,-2 1,0 2,0 2,1l9 8c0,0 0,0 0,0 2,1 6,5 7,7l4 3c1,1 1,1 2,2 2,2 5,3 8,3 3,0 3,0 6,-1 2,-1 3,-2 5,-4 0,0 0,-1 1,-1 1,-2 2,-6 1,-9 0,0 0,-1 0,-1 0,-1 0,-1 0,-1l-1 -2 -6 -6c-1,-2 -3,-3 -4,-5 -1,-1 -2,-2 -3,-3l-1 -1c-1,-2 -3,-3 -5,-5 -1,-1 -1,-1 -2,-2l-2 -2c-1,-1 -1,-1 -2,-2 -1,-1 -1,-1 -2,-2 -1,0 -1,-1 -2,-2l-5 -5c-1,-1 -1,-1 -2,-2l-8 -8c0,0 0,0 0,0 0,0 0,0 0,0l-10 -10c-1,-1 -2,-2 -4,-4 -1,-1 -1,-1 -2,-2 -1,-1 -2,-1 -3,-2l-6 -2c-2,-1 -7,-1 -8,0l-10 4c-1,0 -2,1 -3,1 -1,0 -2,1 -2,1l-4 2c0,0 0,0 0,0 -1,1 -2,1 -3,1 -1,0 -1,0 -1,1l-13 6c-1,0 -2,1 -3,1 -1,0 -1,0 -1,0 -2,0 -1,1 -8,1 -1,0 -2,0 -3,0 -1,0 -1,0 -1,0l-3 -1c-2,0 -4,-2 -6,-3 -1,0 -2,-1 -2,-2 -1,-1 -3,-2 -4,-3l-4 -6c0,-1 -1,-2 -1,-2l-1 -2c-1,-2 -1,-7 -1,-9 0,-4 0,-2 1,-5 0,-2 0,-2 1,-4 0,-1 0,-1 0,-1 2,-4 4,-7 6,-10 2,-2 5,-4 8,-6l2 -1c0,0 0,0 0,0 2,-1 2,-1 2,-1l20 -12c1,-1 3,-1 5,-3 1,0 2,-1 2,-1 1,0 1,-1 2,-1l2 -1c1,0 1,-1 0,-2 0,0 0,-1 -1,-1l-3 -3c-1,0 -1,-1 -2,-1l-3 -1c0,0 -1,0 -1,0l-2 -1c-3,-1 -3,-1 -6,-2 -2,-1 -4,-1 -6,-1 -2,0 -3,0 -5,0 -2,0 -5,1 -7,2 -1,0 -1,0 -2,1 -1,0 -1,0 -2,1 -1,0 -6,2 -7,3l-13 6c0,0 0,0 -1,0l-1 1c-2,1 -4,2 -6,3 -1,1 -3,1 -4,2 -1,1 -3,2 -4,2l-3 2c0,0 -1,0 -1,1 -1,0 -1,1 -2,1 -1,1 -3,2 -5,2l-4 1c-2,0 -6,1 -8,0 -1,0 -5,-1 -6,-1l-2 -1c0,0 -1,0 -1,0 -1,0 -3,-1 -4,-2l-3 -1c-1,0 -1,0 -1,0 0,0 0,0 -1,-1l-10 -3c-2,0 -4,-1 -5,-2l-2 -1c-1,0 0,0 -1,0zm70 120c-1,0 -1,0 -2,-1 -2,0 -4,0 -5,0l-2 0c-1,0 0,-2 0,-3 0,-1 0,-3 0,-4 0,-2 0,-3 -1,-5 -1,-3 -2,-4 -5,-6 0,0 -1,-1 -1,-1 -1,-1 -2,-1 -2,-1 -1,0 0,0 -1,0 -1,0 0,0 -1,0 -1,0 -1,0 -2,-1 -3,0 -5,0 -8,1 0,0 -1,0 -1,0 -2,1 -5,2 -6,4 -2,1 -5,6 -6,8 0,0 0,1 0,1 0,1 -1,1 -1,2l-1 2c0,1 0,0 0,1 0,0 0,1 0,1 0,2 -1,3 0,6 0,0 0,1 0,1 0,1 1,2 1,3 1,3 4,4 6,5 4,1 8,0 12,-1 0,0 2,-1 3,-1 0,1 0,1 0,1 0,1 0,1 0,1l0 1c0,0 0,0 0,0l-1 1c0,0 0,1 0,1 0,1 -1,2 -1,4 0,1 0,2 0,3 0,1 1,2 1,3 0,0 0,1 0,1l1 2c0,0 1,1 1,1 1,1 1,1 2,2 0,0 1,0 2,1 1,1 3,1 5,1 2,0 5,-1 6,-1 0,0 1,0 1,0 1,0 1,-1 2,-1 0,1 0,1 -1,2 0,1 0,1 -1,2 0,0 -1,2 -1,2 -1,4 -1,7 1,11 1,1 1,1 2,2 1,1 2,2 3,2 2,1 6,1 8,1 1,0 2,0 3,0 1,0 1,0 1,0 0,0 1,0 2,0 0,-1 1,-1 1,-1 1,0 1,0 2,0 0,1 -1,2 -1,3 -1,3 -3,6 -3,9 0,2 0,2 1,3 1,2 1,2 2,3 0,0 0,0 0,0 1,1 2,2 3,3 1,1 2,1 3,1 1,0 0,0 1,1 2,1 5,1 7,0l3 -1c1,0 1,0 2,0 1,0 0,0 1,-1 1,0 1,0 2,-1 2,-1 3,-1 5,-2 4,-2 7,-6 8,-10 0,-1 0,-1 1,-1l1 -3c0,-3 0,-6 -2,-8l-3 -5c-1,-1 -2,-2 -3,-3 -2,-1 -4,-2 -6,-2 -1,0 -3,0 -4,0 -1,0 -2,1 -3,0 0,-1 2,-4 1,-9 -1,-3 -1,-5 -3,-7 -1,-1 -1,-1 -1,-1 -3,-2 -6,-4 -10,-4 -1,0 -2,0 -3,0 -1,0 -1,0 -3,0 0,-1 0,-2 0,-3 0,-3 0,-6 -1,-8l-3 -4c0,0 0,0 -1,0 -2,-2 -4,-3 -6,-3z"/>
  <path class="fil3" d="M1473 168c32,0 57,26 57,57 0,32 -26,57 -57,57 -32,0 -57,-26 -57,-57 0,-32 26,-57 57,-57z"/>
  <path class="fil1 str1" d="M1473 168c32,0 57,26 57,57 0,32 -26,57 -57,57 -32,0 -57,-26 -57,-57 0,-32 26,-57 57,-57z"/>
  <path class="fil3" d="M235 255c21,0 38,17 38,38 0,21 -17,38 -38,38 -21,0 -38,-17 -38,-38 0,-21 17,-38 38,-38z"/>
  <path class="fil1 str2" d="M235 255c21,0 38,17 38,38 0,21 -17,38 -38,38 -21,0 -38,-17 -38,-38 0,-21 17,-38 38,-38z"/>
 </g>
</svg>
